<svg width="21" height="14" viewBox="0 0 21 14" fill="none" xmlns="http://www.w3.org/2000/svg">
<path d="M10.5 4.4375C9.80381 4.4375 9.13613 4.71406 8.64384 5.20634C8.15156 5.69863 7.875 6.36631 7.875 7.0625C7.875 7.75869 8.15156 8.42637 8.64384 8.91866C9.13613 9.41094 9.80381 9.6875 10.5 9.6875C11.1962 9.6875 11.8639 9.41094 12.3562 8.91866C12.8484 8.42637 13.125 7.75869 13.125 7.0625C13.125 6.36631 12.8484 5.69863 12.3562 5.20634C11.8639 4.71406 11.1962 4.4375 10.5 4.4375ZM10.5 11.4375C9.33968 11.4375 8.22688 10.9766 7.40641 10.1561C6.58594 9.33562 6.125 8.22282 6.125 7.0625C6.125 5.90218 6.58594 4.78938 7.40641 3.96891C8.22688 3.14844 9.33968 2.6875 10.5 2.6875C11.6603 2.6875 12.7731 3.14844 13.5936 3.96891C14.4141 4.78938 14.875 5.90218 14.875 7.0625C14.875 8.22282 14.4141 9.33562 13.5936 10.1561C12.7731 10.9766 11.6603 11.4375 10.5 11.4375ZM10.5 0.5C6.125 0.5 2.38875 3.22125 0.875 7.0625C2.38875 10.9037 6.125 13.625 10.5 13.625C14.875 13.625 18.6112 10.9037 20.125 7.0625C18.6112 3.22125 14.875 0.5 10.5 0.5Z" fill="#8FAADC" fill-opacity="0.5"/>
</svg>
