<svg width="243" height="54" viewBox="0 0 243 54" fill="none" xmlns="http://www.w3.org/2000/svg">
<path d="M30.603 41.873C30.603 38.986 28.836 37.307 25.45 34.348C24.685 33.673 23.859 32.958 23.006 32.161C22.033 33.082 21.108 33.892 20.26 34.636C16.88 37.575 15.4 39.013 15.4 41.873C15.4 43.947 16.201 45.937 17.627 47.404C19.052 48.872 20.986 49.696 23.002 49.696C25.018 49.696 26.951 48.872 28.376 47.404C29.802 45.937 30.603 43.947 30.603 41.873Z" fill="url(#paint0_linear_84_110)"/>
<path d="M32.638 9.0787C30.015 6.786 27.304 4.4167 24.562 1.5975L23.002 0L21.471 1.5998C16.544 6.6893 14.213 14.506 13.203 19.195C12.428 17.96 11.853 16.603 11.5 15.178L10.567 11.495L7.87111 14.098C3.15121 18.661 0.000910552 23.186 0.000910552 30.431C-0.0444894 35.659 1.60901 40.753 4.69851 44.903C7.78811 49.053 12.137 52.021 17.053 53.336C18.288 53.658 19.546 53.88 20.815 54C18.064 53.472 15.578 51.971 13.787 49.757C11.997 47.542 11.015 44.753 11.01 41.873C11.01 36.81 13.977 34.223 17.412 31.203C18.638 30.13 20.035 28.913 21.445 27.452L23.002 25.859L24.549 27.452C25.809 28.748 27.068 29.846 28.286 30.913C31.731 33.921 34.984 36.763 34.984 41.873C34.98 44.742 34.006 47.521 32.228 49.731C30.451 51.942 27.981 53.446 25.242 53.986C30.928 53.419 36.204 50.692 40.041 46.338C43.879 41.984 46.003 36.314 46 30.436C46 20.756 39.807 15.345 32.638 9.0787Z" fill="url(#paint1_linear_84_110)"/>
<path d="M50.875 50.9999V21.9089H63.432C65.591 21.9089 67.48 22.3019 69.099 23.0879C70.719 23.8739 71.978 25.0059 72.878 26.4829C73.777 27.9599 74.227 29.7309 74.227 31.7949C74.227 33.8789 73.763 35.6349 72.835 37.0649C71.917 38.4949 70.624 39.5749 68.957 40.3039C67.3 41.0329 65.364 41.3979 63.148 41.3979H55.648V35.2609H61.557C62.485 35.2609 63.276 35.1479 63.929 34.9199C64.592 34.6839 65.098 34.3099 65.449 33.7979C65.809 33.2869 65.989 32.6189 65.989 31.7949C65.989 30.9619 65.809 30.2849 65.449 29.7639C65.098 29.2339 64.592 28.8459 63.929 28.5989C63.276 28.3439 62.485 28.2159 61.557 28.2159H58.773V50.9999H50.875ZM67.92 37.6479L75.193 50.9999H66.614L59.511 37.6479H67.92ZM77.594 50.9999V21.9089H90.207C92.423 21.9089 94.284 22.2069 95.79 22.8039C97.305 23.4009 98.446 24.2429 99.213 25.3319C99.99 26.4209 100.378 27.7049 100.378 29.1819C100.378 30.2519 100.141 31.2269 99.668 32.1079C99.204 32.9889 98.55 33.7269 97.707 34.3239C96.865 34.9109 95.88 35.3179 94.753 35.5449V35.8299C96.003 35.8769 97.139 36.1939 98.162 36.7809C99.185 37.3589 99.999 38.1589 100.605 39.1819C101.211 40.1949 101.514 41.3879 101.514 42.7609C101.514 44.3519 101.098 45.7679 100.264 47.0089C99.44 48.2489 98.266 49.2239 96.741 49.9349C95.217 50.6449 93.399 50.9999 91.287 50.9999H77.594ZM85.491 44.6929H89.185C90.51 44.6929 91.505 44.4469 92.168 43.9549C92.83 43.4529 93.162 42.7139 93.162 41.7389C93.162 41.0569 93.006 40.4789 92.693 40.0059C92.381 39.5319 91.936 39.1719 91.358 38.9259C90.79 38.6799 90.103 38.5569 89.298 38.5569H85.491V44.6929ZM85.491 33.6699H88.73C89.421 33.6699 90.032 33.5619 90.562 33.3439C91.093 33.1259 91.505 32.8129 91.798 32.4059C92.101 31.9899 92.253 31.4829 92.253 30.8859C92.253 29.9869 91.931 29.2999 91.287 28.8269C90.643 28.3439 89.829 28.1019 88.844 28.1019H85.491V33.6699ZM112.778 21.9089L117.551 30.3749H117.778L122.608 21.9089H131.415L122.722 36.4549L131.756 50.9999H122.722L117.778 42.3639H117.551L112.608 50.9999H103.631L112.551 36.4549L103.915 21.9089H112.778Z" fill="url(#paint2_linear_84_110)"/>
<path d="M134.82 50.9999V21.9089H142.718V33.2729H153.173V21.9089H161.07V50.9999H153.173V39.6359H142.718V50.9999H134.82ZM164.82 50.9999V21.9089H185.786V28.2729H172.718V33.2729H184.707V39.6359H172.718V44.6359H185.729V50.9999H164.82ZM197.26 50.9999H188.737L198.339 21.9089H209.135L218.737 50.9999H210.214L203.851 29.9199H203.624L197.26 50.9999ZM195.669 39.5229H211.692V45.4319H195.669V39.5229ZM217.072 28.2729V21.9089H242.356V28.2729H233.606V50.9999H225.822V28.2729H217.072Z" fill="white"/>
<defs>
<linearGradient id="paint0_linear_84_110" x1="23.002" y1="32.161" x2="23.002" y2="49.696" gradientUnits="userSpaceOnUse">
<stop stop-color="#FF463A"/>
<stop offset="1" stop-color="#FF3B2E"/>
</linearGradient>
<linearGradient id="paint1_linear_84_110" x1="23" y1="0" x2="23" y2="54" gradientUnits="userSpaceOnUse">
<stop stop-color="#FF463A"/>
<stop offset="1" stop-color="#FF3B2E"/>
</linearGradient>
<linearGradient id="paint2_linear_84_110" x1="49" y1="35.4999" x2="247" y2="35.4999" gradientUnits="userSpaceOnUse">
<stop stop-color="#FF3B2E"/>
<stop offset="1" stop-color="#FF3B2E"/>
</linearGradient>
</defs>
</svg>
