<svg width="15" height="14" viewBox="0 0 15 14" fill="none" xmlns="http://www.w3.org/2000/svg">
<path d="M11.0526 3.43401e-09C11.6567 -3.14055e-05 12.238 0.215397 12.6776 0.602209C13.1171 0.98902 13.3817 1.51797 13.4171 2.08084L13.4211 2.21053V9.57895H14.0132C14.5239 9.57895 14.9447 9.94147 14.9953 10.4057L15 10.5V11.7895C15 12.3533 14.7692 12.8959 14.3548 13.3061C13.9403 13.7163 13.3736 13.9632 12.7705 13.9963L12.6316 14H4.73684C4.13273 14 3.55144 13.7846 3.1119 13.3978C2.67236 13.011 2.40781 12.482 2.37237 11.9192L2.36842 11.7895V4.42105H0.986842C0.742533 4.42116 0.506867 4.33668 0.325448 4.18396C0.144029 4.03124 0.0297541 3.82114 0.00473688 3.59432L3.6793e-09 3.5V2.21053C-3.36487e-05 1.64669 0.230783 1.10415 0.645224 0.693913C1.05966 0.283679 1.6264 0.0367629 2.22947 0.0036843L2.36842 3.43401e-09H11.0526ZM13.4211 11.0526H6.31579V11.7895C6.31579 12.0474 6.26842 12.2957 6.18158 12.5263H12.6316C12.841 12.5263 13.0418 12.4487 13.1898 12.3105C13.3379 12.1723 13.4211 11.9849 13.4211 11.7895V11.0526ZM7.89474 6.63158H6.31579C6.11457 6.63179 5.92103 6.7037 5.77471 6.83262C5.62839 6.96155 5.54034 7.13775 5.52855 7.32524C5.51676 7.51272 5.58211 7.69733 5.71126 7.84135C5.84041 7.98537 6.02361 8.07792 6.22342 8.10011L6.31579 8.10526H7.89474C8.09596 8.10505 8.2895 8.03314 8.43582 7.90422C8.58214 7.77529 8.67019 7.59909 8.68198 7.4116C8.69377 7.22412 8.62842 7.03951 8.49927 6.89549C8.37012 6.75147 8.18692 6.65892 7.98711 6.63674L7.89474 6.63158ZM9.47368 3.68421H6.31579C6.10641 3.68421 5.9056 3.76184 5.75755 3.90003C5.60949 4.03821 5.52632 4.22563 5.52632 4.42105C5.52632 4.61648 5.60949 4.80389 5.75755 4.94208C5.9056 5.08026 6.10641 5.1579 6.31579 5.1579H9.47368C9.68307 5.1579 9.88387 5.08026 10.0319 4.94208C10.18 4.80389 10.2632 4.61648 10.2632 4.42105C10.2632 4.22563 10.18 4.03821 10.0319 3.90003C9.88387 3.76184 9.68307 3.68421 9.47368 3.68421ZM2.36842 1.47368C2.15904 1.47368 1.95823 1.55132 1.81018 1.6895C1.66212 1.82769 1.57895 2.0151 1.57895 2.21053V2.94737H2.36842V1.47368Z" fill="#2E50FF"/>
</svg>
