<svg width="195" height="29" viewBox="0 0 195 29" fill="none" xmlns="http://www.w3.org/2000/svg">
<path d="M0.275568 28V1.81818H10.7585C12.6847 1.81818 14.2912 2.10369 15.5781 2.67472C16.8651 3.24574 17.8324 4.03835 18.4801 5.05256C19.1278 6.05824 19.4517 7.21733 19.4517 8.52983C19.4517 9.55256 19.2472 10.4517 18.8381 11.2273C18.429 11.9943 17.8665 12.625 17.1506 13.1193C16.4432 13.6051 15.6335 13.9503 14.7216 14.1548V14.4105C15.7188 14.4531 16.652 14.7344 17.5213 15.2543C18.3991 15.7741 19.1108 16.5028 19.6562 17.4403C20.2017 18.3693 20.4744 19.4773 20.4744 20.7642C20.4744 22.1534 20.1293 23.3935 19.4389 24.4844C18.7571 25.5668 17.7472 26.4233 16.4091 27.054C15.071 27.6847 13.4219 28 11.4616 28H0.275568ZM5.81108 23.4744H10.3239C11.8665 23.4744 12.9915 23.1804 13.6989 22.5923C14.4063 21.9957 14.7599 21.2031 14.7599 20.2145C14.7599 19.4901 14.5852 18.8509 14.2358 18.2969C13.8864 17.7429 13.3878 17.3082 12.7401 16.9929C12.1009 16.6776 11.3381 16.5199 10.4517 16.5199H5.81108V23.4744ZM5.81108 12.7741H9.91477C10.6733 12.7741 11.3466 12.642 11.9347 12.3778C12.5313 12.1051 13 11.7216 13.3409 11.2273C13.6903 10.733 13.8651 10.1406 13.8651 9.45028C13.8651 8.50426 13.5284 7.74148 12.8551 7.16193C12.1903 6.58239 11.2443 6.29261 10.017 6.29261H5.81108V12.7741ZM29.4201 1.81818V28H23.9741V1.81818H29.4201ZM42.6548 28.3835C40.669 28.3835 38.9517 27.9616 37.5028 27.1179C36.0625 26.2656 34.9503 25.081 34.1662 23.5639C33.3821 22.0384 32.9901 20.2699 32.9901 18.2585C32.9901 16.2301 33.3821 14.4574 34.1662 12.9403C34.9503 11.4148 36.0625 10.2301 37.5028 9.38636C38.9517 8.53409 40.669 8.10795 42.6548 8.10795C44.6406 8.10795 46.3537 8.53409 47.794 9.38636C49.2429 10.2301 50.3594 11.4148 51.1435 12.9403C51.9276 14.4574 52.3196 16.2301 52.3196 18.2585C52.3196 20.2699 51.9276 22.0384 51.1435 23.5639C50.3594 25.081 49.2429 26.2656 47.794 27.1179C46.3537 27.9616 44.6406 28.3835 42.6548 28.3835ZM42.6804 24.1648C43.5838 24.1648 44.3381 23.9091 44.9432 23.3977C45.5483 22.8778 46.0043 22.1705 46.3111 21.2756C46.6264 20.3807 46.7841 19.3622 46.7841 18.2202C46.7841 17.0781 46.6264 16.0597 46.3111 15.1648C46.0043 14.2699 45.5483 13.5625 44.9432 13.0426C44.3381 12.5227 43.5838 12.2628 42.6804 12.2628C41.7685 12.2628 41.0014 12.5227 40.3793 13.0426C39.7656 13.5625 39.3011 14.2699 38.9858 15.1648C38.679 16.0597 38.5256 17.0781 38.5256 18.2202C38.5256 19.3622 38.679 20.3807 38.9858 21.2756C39.3011 22.1705 39.7656 22.8778 40.3793 23.3977C41.0014 23.9091 41.7685 24.1648 42.6804 24.1648ZM59.7088 8.36364L63.3139 15.2287L67.0085 8.36364H72.5952L66.9062 18.1818L72.7486 28H67.1875L63.3139 21.2116L59.5043 28H53.8793L59.7088 18.1818L54.0838 8.36364H59.7088Z" fill="white"/>
<path d="M99.0327 10.9844H93.4332C93.331 10.2599 93.1222 9.61648 92.8068 9.05398C92.4915 8.48295 92.0866 7.99716 91.5923 7.59659C91.098 7.19602 90.527 6.8892 89.8793 6.67614C89.2401 6.46307 88.5455 6.35653 87.7955 6.35653C86.4403 6.35653 85.2599 6.69318 84.2543 7.36648C83.2486 8.03125 82.4688 9.00284 81.9148 10.2812C81.3608 11.5511 81.0838 13.0937 81.0838 14.9091C81.0838 16.7756 81.3608 18.3437 81.9148 19.6136C82.4773 20.8835 83.2614 21.8423 84.267 22.4901C85.2727 23.1378 86.4361 23.4616 87.7571 23.4616C88.4986 23.4616 89.1847 23.3636 89.8153 23.1676C90.4545 22.9716 91.0213 22.6861 91.5156 22.3111C92.0099 21.9276 92.419 21.4631 92.7429 20.9176C93.0753 20.3722 93.3054 19.75 93.4332 19.0511L99.0327 19.0767C98.8878 20.2784 98.5256 21.4375 97.946 22.554C97.375 23.6619 96.6037 24.6548 95.6321 25.5327C94.669 26.402 93.5185 27.0923 92.1804 27.6037C90.8509 28.1065 89.3466 28.358 87.6676 28.358C85.3324 28.358 83.2443 27.8295 81.4034 26.7727C79.571 25.7159 78.1222 24.1861 77.0568 22.1832C76 20.1804 75.4716 17.7557 75.4716 14.9091C75.4716 12.054 76.0085 9.625 77.0824 7.62216C78.1563 5.61932 79.6136 4.09375 81.4545 3.04545C83.2955 1.98864 85.3665 1.46023 87.6676 1.46023C89.1847 1.46023 90.5909 1.67329 91.8864 2.09943C93.1903 2.52557 94.3452 3.14773 95.3509 3.96591C96.3565 4.77557 97.1747 5.76846 97.8054 6.9446C98.4446 8.12074 98.8537 9.46733 99.0327 10.9844ZM108.499 28.3707C107.246 28.3707 106.13 28.1534 105.15 27.7188C104.17 27.2756 103.394 26.6236 102.823 25.7628C102.261 24.8935 101.979 23.8111 101.979 22.5156C101.979 21.4247 102.18 20.5085 102.58 19.767C102.981 19.0256 103.526 18.429 104.217 17.9773C104.907 17.5256 105.691 17.1847 106.569 16.9545C107.455 16.7244 108.384 16.5625 109.356 16.4688C110.498 16.3494 111.418 16.2386 112.117 16.1364C112.816 16.0256 113.323 15.8636 113.638 15.6506C113.954 15.4375 114.112 15.1222 114.112 14.7045V14.6278C114.112 13.8182 113.856 13.1918 113.344 12.7486C112.842 12.3054 112.126 12.0838 111.197 12.0838C110.217 12.0838 109.437 12.3011 108.857 12.7358C108.278 13.1619 107.894 13.6989 107.707 14.3466L102.67 13.9375C102.925 12.7443 103.428 11.7131 104.178 10.8438C104.928 9.96591 105.896 9.29261 107.08 8.82386C108.273 8.34659 109.654 8.10795 111.222 8.10795C112.313 8.10795 113.357 8.2358 114.354 8.49148C115.36 8.74716 116.251 9.14347 117.026 9.6804C117.81 10.2173 118.428 10.9077 118.88 11.7514C119.332 12.5866 119.558 13.5881 119.558 14.7557V28H114.393V25.277H114.239C113.924 25.8906 113.502 26.4318 112.974 26.9006C112.445 27.3608 111.81 27.723 111.069 27.9872C110.327 28.2429 109.471 28.3707 108.499 28.3707ZM110.059 24.6122C110.86 24.6122 111.567 24.4545 112.181 24.1392C112.795 23.8153 113.276 23.3807 113.626 22.8352C113.975 22.2898 114.15 21.6719 114.15 20.9815V18.8977C113.979 19.0085 113.745 19.1108 113.447 19.2045C113.157 19.2898 112.829 19.3707 112.462 19.4474C112.096 19.5156 111.729 19.5795 111.363 19.6392C110.996 19.6903 110.664 19.7372 110.366 19.7798C109.727 19.8736 109.168 20.0227 108.691 20.2273C108.214 20.4318 107.843 20.7088 107.579 21.0582C107.315 21.3991 107.183 21.8253 107.183 22.3366C107.183 23.0781 107.451 23.6449 107.988 24.0369C108.533 24.4205 109.224 24.6122 110.059 24.6122ZM140.121 13.9631L135.135 14.2699C135.05 13.8437 134.866 13.4602 134.585 13.1193C134.304 12.7699 133.933 12.4929 133.473 12.2884C133.021 12.0753 132.48 11.9688 131.849 11.9688C131.006 11.9688 130.294 12.1477 129.714 12.5057C129.135 12.8551 128.845 13.3239 128.845 13.9119C128.845 14.3807 129.033 14.777 129.408 15.1009C129.783 15.4247 130.426 15.6847 131.338 15.8807L134.892 16.5966C136.801 16.9886 138.224 17.6193 139.162 18.4886C140.099 19.358 140.568 20.5 140.568 21.9148C140.568 23.2017 140.189 24.331 139.43 25.3026C138.68 26.2741 137.649 27.0327 136.337 27.5781C135.033 28.1151 133.528 28.3835 131.824 28.3835C129.224 28.3835 127.153 27.8423 125.611 26.7599C124.077 25.669 123.178 24.1861 122.913 22.3111L128.27 22.0298C128.432 22.8224 128.824 23.4276 129.446 23.8452C130.068 24.2543 130.865 24.4588 131.837 24.4588C132.791 24.4588 133.558 24.2756 134.138 23.9091C134.726 23.5341 135.024 23.0526 135.033 22.4645C135.024 21.9702 134.815 21.5653 134.406 21.25C133.997 20.9261 133.366 20.679 132.514 20.5085L129.114 19.831C127.196 19.4474 125.768 18.7827 124.831 17.8366C123.902 16.8906 123.438 15.6847 123.438 14.2188C123.438 12.9574 123.778 11.8707 124.46 10.9588C125.151 10.0469 126.118 9.34375 127.362 8.84943C128.615 8.35511 130.081 8.10795 131.76 8.10795C134.24 8.10795 136.192 8.6321 137.615 9.6804C139.047 10.7287 139.882 12.1562 140.121 13.9631ZM143.998 28V8.36364H149.444V28H143.998ZM146.733 5.83239C145.924 5.83239 145.229 5.56392 144.65 5.02699C144.078 4.48153 143.793 3.82954 143.793 3.07102C143.793 2.32102 144.078 1.67756 144.65 1.14062C145.229 0.59517 145.924 0.322442 146.733 0.322442C147.543 0.322442 148.233 0.59517 148.804 1.14062C149.384 1.67756 149.674 2.32102 149.674 3.07102C149.674 3.82954 149.384 4.48153 148.804 5.02699C148.233 5.56392 147.543 5.83239 146.733 5.83239ZM159.252 16.6477V28H153.806V8.36364H158.996V11.8281H159.227C159.661 10.6861 160.39 9.78267 161.413 9.1179C162.435 8.4446 163.675 8.10795 165.133 8.10795C166.496 8.10795 167.685 8.40625 168.7 9.00284C169.714 9.59943 170.502 10.4517 171.065 11.5597C171.627 12.6591 171.908 13.9716 171.908 15.4972V28H166.462V16.4688C166.471 15.267 166.164 14.3295 165.542 13.6562C164.92 12.9744 164.063 12.6335 162.972 12.6335C162.239 12.6335 161.592 12.7912 161.029 13.1065C160.475 13.4219 160.04 13.8821 159.725 14.4872C159.418 15.0838 159.261 15.804 159.252 16.6477ZM185.073 28.3835C183.087 28.3835 181.37 27.9616 179.921 27.1179C178.48 26.2656 177.368 25.081 176.584 23.5639C175.8 22.0384 175.408 20.2699 175.408 18.2585C175.408 16.2301 175.8 14.4574 176.584 12.9403C177.368 11.4148 178.48 10.2301 179.921 9.38636C181.37 8.53409 183.087 8.10795 185.073 8.10795C187.059 8.10795 188.772 8.53409 190.212 9.38636C191.661 10.2301 192.777 11.4148 193.561 12.9403C194.346 14.4574 194.738 16.2301 194.738 18.2585C194.738 20.2699 194.346 22.0384 193.561 23.5639C192.777 25.081 191.661 26.2656 190.212 27.1179C188.772 27.9616 187.059 28.3835 185.073 28.3835ZM185.098 24.1648C186.002 24.1648 186.756 23.9091 187.361 23.3977C187.966 22.8778 188.422 22.1705 188.729 21.2756C189.044 20.3807 189.202 19.3622 189.202 18.2202C189.202 17.0781 189.044 16.0597 188.729 15.1648C188.422 14.2699 187.966 13.5625 187.361 13.0426C186.756 12.5227 186.002 12.2628 185.098 12.2628C184.186 12.2628 183.419 12.5227 182.797 13.0426C182.184 13.5625 181.719 14.2699 181.404 15.1648C181.097 16.0597 180.944 17.0781 180.944 18.2202C180.944 19.3622 181.097 20.3807 181.404 21.2756C181.719 22.1705 182.184 22.8778 182.797 23.3977C183.419 23.9091 184.186 24.1648 185.098 24.1648Z" fill="url(#paint0_linear_20_6)"/>
<defs>
<linearGradient id="paint0_linear_20_6" x1="134.5" y1="-21.5" x2="131.5" y2="47" gradientUnits="userSpaceOnUse">
<stop stop-color="#2E50FF"/>
<stop offset="1" stop-color="#0930FF"/>
</linearGradient>
</defs>
</svg>
