<svg width="22" height="22" viewBox="0 0 22 22" fill="none" xmlns="http://www.w3.org/2000/svg">
<g clip-path="url(#clip0_20_232)">
<path d="M3.74548 4.58337C4.18181 4.21212 5.69706 3.66671 7.33331 3.66671C8.96956 3.66671 10.4848 4.21121 10.9211 4.58337H12.8333C12.8333 2.52637 9.05573 1.83337 7.33331 1.83337C5.6109 1.83337 1.83331 2.52637 1.83331 4.58337V15.5834C1.83331 17.6413 5.6109 18.3334 7.33331 18.3334C7.5964 18.3334 7.91173 18.315 8.24998 18.2802V16.4395C7.94591 16.478 7.6398 16.4982 7.33331 16.5C5.57698 16.5 3.95815 15.8721 3.66665 15.5045V14.8693C4.87665 15.379 6.4029 15.5834 7.33331 15.5834C7.59731 15.5834 7.91173 15.565 8.24998 15.5302V13.6895C7.94591 13.728 7.6398 13.7482 7.33331 13.75C5.55773 13.75 3.9334 13.1102 3.66665 12.7435V12.1184C4.87665 12.629 6.4029 12.8334 7.33331 12.8334C7.59731 12.8334 7.91173 12.815 8.24998 12.7802V10.9395C7.94591 10.978 7.6398 10.9982 7.33331 11C5.55773 11 3.9334 10.3602 3.66665 9.99354V9.36837C4.87665 9.87896 6.4029 10.0834 7.33331 10.0834C7.59731 10.0834 7.91173 10.065 8.24998 10.0302V8.19046C7.94585 8.22815 7.63977 8.24805 7.33331 8.25004C5.55773 8.25004 3.9334 7.61112 3.66665 7.24446V6.61929C4.87665 7.12896 6.4029 7.33337 7.33331 7.33337C7.59731 7.33337 7.91173 7.31504 8.24998 7.28021V5.44137C7.94583 5.47876 7.63975 5.49835 7.33331 5.50004C5.69798 5.50004 4.18181 4.95646 3.74548 4.58337Z" fill="#2E50FF"/>
<path d="M14.6666 6.41675C12.9442 6.41675 9.16663 7.10975 9.16663 9.16675V17.4167C9.16663 19.4747 12.9442 20.1667 14.6666 20.1667C16.389 20.1667 20.1666 19.4747 20.1666 17.4167V9.16675C20.1666 7.10975 16.389 6.41675 14.6666 6.41675ZM18.3333 11.8278C18.0665 12.1945 16.4422 12.8334 14.6666 12.8334C12.891 12.8334 11.2667 12.1936 11 11.8269V11.2017C12.21 11.7123 13.7362 11.9167 14.6666 11.9167C15.597 11.9167 17.1233 11.7123 18.3333 11.2027V11.8278ZM18.3333 14.5778C18.0665 14.9445 16.4422 15.5834 14.6666 15.5834C12.891 15.5834 11.2667 14.9436 11 14.5769V13.9517C12.21 14.4623 13.7362 14.6667 14.6666 14.6667C15.597 14.6667 17.1233 14.4623 18.3333 13.9527V14.5778ZM14.6666 8.25008C16.3029 8.25008 17.8181 8.79458 18.2545 9.16675C17.8181 9.53891 16.302 10.0834 14.6666 10.0834C13.0313 10.0834 11.5151 9.53891 11.0788 9.16675C11.5151 8.7955 13.0304 8.25008 14.6666 8.25008ZM14.6666 18.3334C12.9103 18.3334 11.2915 17.7055 11 17.3379V16.7027C12.21 17.2123 13.7362 17.4167 14.6666 17.4167C15.597 17.4167 17.1233 17.2123 18.3333 16.7027V17.3379C18.0418 17.7055 16.423 18.3334 14.6666 18.3334Z" fill="#2E50FF"/>
</g>
<defs>
<clipPath id="clip0_20_232">
<rect width="22" height="22" fill="white"/>
</clipPath>
</defs>
</svg>
