<svg width="15" height="14" viewBox="0 0 15 14" fill="none" xmlns="http://www.w3.org/2000/svg">
<path d="M7.04169 0C5.3097 0.00294641 3.63914 0.620004 2.34723 1.734V0H1.17361V2.91437C1.17392 3.19336 1.28883 3.46084 1.49312 3.65812C1.69741 3.8554 1.9744 3.96637 2.26332 3.96667H5.28126V2.83333H2.85188C3.80416 1.89554 5.06421 1.30632 6.41658 1.1664C7.76896 1.02649 9.12967 1.34457 10.2661 2.06627C11.4024 2.78797 12.2439 3.86846 12.6466 5.123C13.0494 6.37754 12.9883 7.72821 12.4739 8.94408C11.9594 10.1599 11.0236 11.1655 9.8264 11.7888C8.62919 12.4121 7.24495 12.6144 5.91035 12.3612C4.57576 12.108 3.37369 11.4149 2.50969 10.4005C1.64569 9.38614 1.17342 8.11343 1.17361 6.8H0C0 8.14491 0.412988 9.45962 1.18674 10.5779C1.96049 11.6961 3.06025 12.5677 4.34695 13.0824C5.63365 13.5971 7.0495 13.7317 8.41545 13.4693C9.7814 13.207 11.0361 12.5593 12.0209 11.6083C13.0057 10.6573 13.6764 9.44568 13.9481 8.12661C14.2198 6.80754 14.0803 5.44029 13.5474 4.19775C13.0144 2.95521 12.1118 1.8932 10.9538 1.14601C9.79584 0.398813 8.4344 0 7.04169 0Z" fill="#A3BFE0" fill-opacity="0.4"/>
<path d="M6.25928 3.77777V7.06639L8.44876 9.06666L9.38892 8.20776L7.58906 6.56344V3.77777H6.25928Z" fill="#A3BFE0" fill-opacity="0.4"/>
</svg>
