<svg width="55" height="55" viewBox="0 0 55 55" fill="none" xmlns="http://www.w3.org/2000/svg">
<g clip-path="url(#clip0_1_5)">
<g filter="url(#filter0_d_1_5)">
<path d="M43.5247 31.1046C43.747 30.2224 45.8784 27.8759 47.2925 26.3246C50.9044 22.3535 55 17.8507 55 12.6078C55 5.16515 48.8601 4.5877 46.9785 4.5877C43.8776 4.5877 41.3245 5.94196 39.0716 7.1381C37.0181 8.22884 35.2465 9.17064 33.2273 9.17064C31.8156 9.17064 29.6727 6.99374 27.9515 5.24535C25.4167 2.66745 22.7925 0.00247136 19.2218 0.00247136C18.4632 -0.00898598 17.4365 0.00247135 16.2905 0.42181C12.9123 1.66379 12.1377 5.10328 11.8099 6.56982C11.4478 8.17385 11.4341 10.7884 11.4524 13.5542L11.457 14.3791C11.457 15.0849 8.63343 16.6889 7.42562 17.3741C4.11847 19.2554 0 21.5973 0 26.226C0 30.6211 3.80448 32.4038 6.32324 33.5839C7.78086 34.2668 9.00242 34.8763 9.1491 35.3667C9.01158 35.8342 8.528 36.9936 6.93287 39.858C6.93287 39.858 5.30336 43.176 4.97562 44.583C4.31786 47.3832 5.19106 50.1421 7.19872 51.6063C9.54559 53.3226 12.3004 52.5985 13.4784 52.2869C15.5434 51.7415 17.4617 50.3644 19.4922 48.9024C21.3922 47.5367 23.7551 45.8364 25.0935 45.8295C25.8865 45.951 28.8614 47.5321 33.468 51.2534C35.2029 52.6535 38.6957 55 42.6011 55C47.3475 55 50.414 51.934 50.414 47.1884C50.414 42.7544 48.0992 39.3882 46.2382 36.682C44.7898 34.5761 43.5384 32.7567 43.5224 31.1046H43.5247ZM43.4674 47.995C43.4674 47.995 43.2451 48.1256 42.6033 48.1256C41.3153 48.1256 39.5116 47.2938 37.7881 45.9029C29.1845 38.9597 26.2922 38.9597 25.2058 38.9597C21.5389 38.9597 18.3188 41.2764 15.4769 43.3204C14.1614 44.2668 12.674 45.3369 11.8168 45.6119C12.0185 44.9863 12.9375 43.2012 12.9375 43.2012C15.1996 39.1385 16.0109 37.1426 16.0384 35.5775C16.114 30.5798 11.8099 28.5633 9.23848 27.358C8.50967 27.0166 7.33853 26.4666 6.90537 26.0931C7.22852 25.3919 9.81144 23.9231 10.8222 23.3479C14.166 21.446 18.328 19.0812 18.328 14.3769L18.3234 13.5061C18.3142 12.1725 18.2936 9.04919 18.5136 8.0799C18.658 7.42912 18.7772 7.06936 18.8597 6.87H18.9032C19.011 6.87 19.1393 6.87 19.2539 6.87458C20.0148 6.98228 21.9124 8.91399 23.0469 10.0666C25.6688 12.7293 28.9278 16.045 33.2228 16.045C36.9539 16.045 39.9127 14.4731 42.2916 13.2105C44.0587 12.271 45.5873 11.4621 46.9739 11.4621C47.6592 11.4621 48.0052 11.5881 48.003 11.5423C48.0373 11.6088 48.1198 11.8425 48.1198 12.6078C48.1198 15.1903 44.8379 18.7994 42.2 21.6981C39.2274 24.9657 36.6605 27.7888 36.6605 30.9396C36.6605 34.8901 38.737 37.9102 40.5705 40.5775C42.161 42.8919 43.5361 44.89 43.5361 47.1884C43.5361 47.7681 43.4628 47.9698 43.4628 47.9973L43.4674 47.995ZM21.7681 25.2109C19.8704 25.2109 18.3303 23.671 18.3303 21.7737C18.3303 19.8764 19.8704 18.3365 21.7681 18.3365C23.6657 18.3365 25.2058 19.8764 25.2058 21.7737C25.2058 23.671 23.6657 25.2109 21.7681 25.2109ZM36.6651 24.0652C36.6651 25.9625 35.125 27.5024 33.2273 27.5024C31.3297 27.5024 29.7896 25.9625 29.7896 24.0652C29.7896 22.1678 31.3297 20.628 33.2273 20.628C35.125 20.628 36.6651 22.1678 36.6651 24.0652ZM27.4977 33.231C27.4977 35.1284 25.9576 36.6683 24.0599 36.6683C22.1623 36.6683 20.6221 35.1284 20.6221 33.231C20.6221 31.3337 22.1623 29.7938 24.0599 29.7938C25.9576 29.7938 27.4977 31.3337 27.4977 33.231Z" fill="url(#paint0_linear_1_5)"/>
</g>
</g>
<defs>
<filter id="filter0_d_1_5" x="-40" y="-36" width="135" height="135" filterUnits="userSpaceOnUse" color-interpolation-filters="sRGB">
<feFlood flood-opacity="0" result="BackgroundImageFix"/>
<feColorMatrix in="SourceAlpha" type="matrix" values="0 0 0 0 0 0 0 0 0 0 0 0 0 0 0 0 0 0 127 0" result="hardAlpha"/>
<feOffset dy="4"/>
<feGaussianBlur stdDeviation="20"/>
<feComposite in2="hardAlpha" operator="out"/>
<feColorMatrix type="matrix" values="0 0 0 0 0.0857814 0 0 0 0 0.232056 0 0 0 0 1 0 0 0 0.21 0"/>
<feBlend mode="normal" in2="BackgroundImageFix" result="effect1_dropShadow_1_5"/>
<feBlend mode="normal" in="SourceGraphic" in2="effect1_dropShadow_1_5" result="shape"/>
</filter>
<linearGradient id="paint0_linear_1_5" x1="27.5" y1="0" x2="27.5" y2="55" gradientUnits="userSpaceOnUse">
<stop stop-color="#2E50FF"/>
<stop offset="1" stop-color="#0930FF"/>
</linearGradient>
<clipPath id="clip0_1_5">
<rect width="55" height="55" fill="white"/>
</clipPath>
</defs>
</svg>
