<svg width="46" height="54" viewBox="0 0 46 54" fill="none" xmlns="http://www.w3.org/2000/svg">
<path d="M30.6029 41.8725C30.6029 38.9858 28.8364 37.3072 25.4501 34.3485C24.6849 33.6735 23.8585 32.958 23.0059 32.1615C22.0331 33.0817 21.1083 33.8917 20.2601 34.6365C16.8803 37.575 15.4003 39.0128 15.4003 41.8725C15.4003 43.9474 16.2011 45.9372 17.6266 47.4044C19.0522 48.8715 20.9856 49.6957 23.0016 49.6957C25.0176 49.6957 26.951 48.8715 28.3765 47.4044C29.802 45.9372 30.6029 43.9474 30.6029 41.8725Z" fill="url(#paint0_linear_84_87)"/>
<path d="M32.6382 9.07875C30.0148 6.786 27.3039 4.41675 24.5625 1.5975L23.0015 0L21.4712 1.59975C16.5436 6.68925 14.2132 14.5058 13.2032 19.1948C12.4281 17.9596 11.853 16.6033 11.5001 15.1785L10.5666 11.4953L7.8711 14.0985C3.15117 18.6615 0.000909882 23.1862 0.000909882 30.4312C-0.0444723 35.6592 1.60896 40.7528 4.69851 44.9028C7.78807 49.0528 12.1365 52.0211 17.053 53.3362C18.2883 53.6584 19.5463 53.8803 20.8154 54C18.0636 53.4722 15.5775 51.9713 13.7871 49.7567C11.9967 47.5422 11.0145 44.7534 11.0104 41.8725C11.0104 36.81 13.9771 34.2225 17.4115 31.203C18.638 30.1298 20.0349 28.9125 21.445 27.4523L23.0015 25.8593L24.5494 27.4523C25.8086 28.7483 27.0678 29.8463 28.2855 30.9128C31.7309 33.921 34.9839 36.7628 34.9839 41.8725C34.9804 44.742 34.0061 47.5207 32.2285 49.7313C30.4508 51.9419 27.9807 53.4465 25.2424 53.9865C30.9276 53.4188 36.2035 50.6919 40.0412 46.3378C43.879 41.9837 46.0033 36.3145 46 30.4358C46 20.7563 39.8066 15.345 32.6382 9.07875Z" fill="url(#paint1_linear_84_87)"/>
<defs>
<linearGradient id="paint0_linear_84_87" x1="23.0016" y1="32.1615" x2="23.0016" y2="49.6957" gradientUnits="userSpaceOnUse">
<stop stop-color="#FF463A"/>
<stop offset="1" stop-color="#FF3B2E"/>
</linearGradient>
<linearGradient id="paint1_linear_84_87" x1="23" y1="0" x2="23" y2="54" gradientUnits="userSpaceOnUse">
<stop stop-color="#FF463A"/>
<stop offset="1" stop-color="#FF3B2E"/>
</linearGradient>
</defs>
</svg>
