<svg width="32" height="22" viewBox="0 0 32 22" fill="none" xmlns="http://www.w3.org/2000/svg">
<path d="M0.0620117 0.631714H31.8322V21.5165H0.0620117V0.631714Z" fill="#012169"/>
<path d="M3.78508 0.631714L15.8975 8.507L27.9602 0.631714H31.8322V3.32933L19.9184 11.1176L31.8322 18.8624V21.5165H27.8609L15.9471 13.7282L4.08293 21.5165H0.0620117V18.9059L11.9262 11.1611L0.0620117 3.41635V0.631714H3.78508Z" fill="white"/>
<path d="M21.1098 12.858L31.8322 19.7761V21.5165L18.3795 12.858H21.1098ZM11.9758 13.7282L12.2737 15.251L2.74262 21.5165H0.0620117L11.9758 13.7282ZM31.8322 0.631714V0.762244L19.4716 8.9421L19.5709 7.02767L29.3502 0.631714H31.8322ZM0.0620117 0.631714L11.9262 8.28946H8.94774L0.0620117 2.45913V0.631714Z" fill="white"/>
<path d="M12.0255 0.631714V21.5165H19.968V0.631714H12.0255ZM0.0620117 7.5933V14.5549H31.8322V7.5933H0.0620117Z" fill="white"/>
<path d="M0.0620117 9.02912V13.2061H31.8322V9.02912H0.0620117ZM13.614 0.631714V21.5165H18.3795V0.631714H13.614Z" fill="#F35C5C"/>
</svg>
